{"title":"Baaghi (2016) 1CD DvDRip XviD ESub -DDR 8th Anniversary","uid":15086622,"size":698070466,"categoryP":"video","categoryS":"movies","magnet":"?xt=urn:btih:649105633e1ea66f3e68b2142c8145979f8b375a&amp;dn=Baaghi+%282016%29+1CD+DvDRip+XviD+ESub+-DDR+8th+Anniversary&amp;tr=udp%3A%2F%2Ftracker.leechers-paradise.org%3A6969&amp;tr=udp%3A%2F%2Fzer0day.ch%3A1337&amp;tr=udp%3A%2F%2Fopen.demonii.com%3A1337&amp;tr=udp%3A%2F%2Ftracker.coppersurfer.tk%3A6969&amp;tr=udp%3A%2F%2Fexodus.desync.com%3A6969","seeders":2,"leechers":0,"uploader":"SaM","files":3,"time":1466889085,"description":"- BollywooD MoviE -\r\n**- Baaghi -**\r\n- 2016 -\r\n** 1 CD / XviD / MP3 **\r\nEnglish subtitle(s)\r\n\r\n ~* SCREENSHOTS *~\r\n \nhttp://extraimago.com/image/agx0 \nhttp://extraimago.com/image/agxJ \nhttp://extraimago.com/image/agxK \nhttp://extraimago.com/image/agxZ \nhttp://extraimago.com/image/agxe \nhttp://extraimago.com/image/agx4 \nhttp://extraimago.com/image/agxB \nhttp://extraimago.com/image/agxC \nhttp://extraimago.com/image/agxY \nhttp://extraimago.com/image/agxp \nhttp://extraimago.com/image/agxr \nhttp://extraimago.com/image/agxG \nhttp://extraimago.com/image/agxP \nhttp://extraimago.com/image/agxX \nhttp://extraimago.com/image/agxg\r\n\r\n[ Specs ]\r\nGeneral\r\nSource = DVD9 @ DDR\r\nFormat : AVI\r\nFile size : 659 MiB\r\nDuration : 2h 14mn\r\nOverall bit rate mode : Variable\r\nOverall bit rate : 686 Kbps\r\n\r\nVideo\r\nFormat : MPEG-4 Visual\r\nFormat profile : Advanced   \r\nCodec ID : XVID\r\nDuration : 2h 3mn\r\nBit rate : 598 Kbps\r\nWidth : 640 pixels\r\nHeight : 272 pixels\r\nDisplay aspect ratio : 2.35:1\r\nFrame rate : 23.976 (24000/1001) fps\r\nColor space : YUV\r\nChroma subsampling : 4:2:0\r\nBit depth : 8 bits\r\nScan type : Progressive\r\nCompression mode : Lossy\r\nBits/(Pixel*Frame) : 0.143\r\nStream size : 574 MiB (87%)\r\nWriting library : XviD 67\r\n\r\nAudio #1\r\nCodec ID/Hint : MP3\r\nDuration : 2h 14mn\r\nBit rate mode : Variable\r\nBit rate : 80.0 Kbps\r\nChannel(s) : 2 channels\r\nSampling rate : 32.0 KHz\r\nCompression mode : Lossy\r\nStream size : 74.6 MiB (11%)\r\n\r\nChapters: N/A\r\nSample: YES - included","torrent":{"xt":"urn:btih:649105633e1ea66f3e68b2142c8145979f8b375a","amp;dn":"Baaghi+%282016%29+1CD+DvDRip+XviD+ESub+-DDR+8th+Anniversary","amp;tr":["udp%3A%2F%2Ftracker.leechers-paradise.org%3A6969","udp%3A%2F%2Fzer0day.ch%3A1337","udp%3A%2F%2Fopen.demonii.com%3A1337","udp%3A%2F%2Ftracker.coppersurfer.tk%3A6969","udp%3A%2F%2Fexodus.desync.com%3A6969"],"infoHash":"649105633e1ea66f3e68b2142c8145979f8b375a","infoHashBuffer":{"type":"Buffer","data":[100,145,5,99,62,30,166,111,62,104,178,20,44,129,69,151,159,139,55,90]},"announce":[],"urlList":[]}}